<svg width="690" height="459" viewBox="0 0 690 459" fill="none" xmlns="http://www.w3.org/2000/svg">
<path d="M689.962 192.814C689.327 227.96 679.03 262.23 660.228 291.778C641.426 321.326 614.863 344.981 583.522 360.088C558.882 371.918 531.948 378.037 504.679 378C500.758 378 496.865 377.877 493 377.631C408.749 372.284 324.251 372.284 240 377.631C236.137 377.875 232.244 377.998 228.321 378C196.675 378.047 165.555 369.8 137.988 354.062C109.67 337.881 86.0152 314.493 69.3621 286.211C52.7089 257.93 43.6349 225.736 43.0375 192.814C40.9827 87.0008 123.689 0.489321 227.456 0.0020063C282.721 -0.254821 332.388 24.1636 366.5 63.0697C400.612 24.1636 450.279 -0.254821 505.544 0.0020063C609.311 0.489321 692.017 87.0008 689.962 192.814Z" fill="#2e8ac4" fill-opacity="0.3"/>
<g clip-path="url(#clip0)">
<path d="M598.255 457.633C592.885 457.4 587.991 455.132 585.778 451.619C585.674 451.455 585.577 451.288 585.485 451.119C584.677 449.622 584.425 447.901 585.308 446.426C586.192 444.952 588.399 443.831 590.616 444.064C592.833 444.296 594.563 446.146 593.646 447.61C593.441 444.651 593.273 441.543 595.554 438.967C596.809 437.621 598.446 436.736 600.222 436.443C604.816 435.598 607.867 438.316 608.478 441.06C608.929 443.086 608.306 445.146 607.686 447.149C609.597 444.785 614.142 443.733 617.622 444.85C621.103 445.966 623.034 449.095 621.845 451.691C620.444 454.748 615.774 456.329 611.435 457.164C607.853 457.853 602.482 457.817 598.255 457.633Z" fill="#F2F2F2"/>
<path d="M411.258 457.633C405.887 457.4 400.994 455.132 398.78 451.619C398.677 451.455 398.579 451.288 398.488 451.119C397.679 449.622 397.427 447.901 398.311 446.426C399.194 444.952 401.402 443.831 403.619 444.064C405.835 444.296 407.566 446.146 406.649 447.61C406.444 444.651 406.276 441.543 408.556 438.967C409.811 437.621 411.449 436.736 413.224 436.443C417.819 435.598 420.87 438.316 421.48 441.06C421.931 443.086 421.308 445.146 420.689 447.149C422.599 444.785 427.144 443.733 430.625 444.85C434.105 445.966 436.037 449.095 434.847 451.691C433.446 454.748 428.776 456.329 424.438 457.164C420.856 457.853 415.484 457.817 411.258 457.633Z" fill="#F2F2F2"/>
<path d="M239.174 281.321H200.654C197.59 281.317 194.653 280.043 192.487 277.776C190.32 275.51 189.102 272.437 189.098 269.232V193.764C189.102 190.559 190.32 187.486 192.487 185.219C194.653 182.953 197.59 181.678 200.654 181.674H239.174C242.238 181.678 245.175 182.953 247.342 185.219C249.508 187.486 250.727 190.559 250.73 193.764V269.232C250.727 272.437 249.508 275.51 247.342 277.776C245.175 280.043 242.238 281.317 239.174 281.321V281.321Z" fill="#F2F2F2"/>
<path d="M475.762 449.605H467.176L463.091 414.957L475.763 414.958L475.762 449.605Z" fill="#FFB8B8"/>
<path d="M477.952 458.312L450.266 458.311V457.945C450.266 456.465 450.545 454.999 451.086 453.631C451.628 452.263 452.422 451.02 453.422 449.973C454.423 448.927 455.611 448.096 456.918 447.53C458.226 446.963 459.627 446.671 461.042 446.672H461.043L477.952 446.672L477.952 458.312Z" fill="#2F2E41"/>
<path d="M571.681 441.201L563.587 444.199L548.68 412.966L560.625 408.541L571.681 441.201Z" fill="#FFB8B8"/>
<path d="M576.524 448.643L550.426 458.312L550.309 457.967C549.837 456.572 549.632 455.092 549.706 453.614C549.78 452.135 550.131 450.687 550.74 449.35C551.35 448.014 552.204 446.817 553.256 445.826C554.308 444.835 555.535 444.071 556.869 443.577L556.87 443.576L572.81 437.671L576.524 448.643Z" fill="#2F2E41"/>
<path d="M475.523 437.972C475.33 437.971 475.138 437.953 474.948 437.917L464.449 435.92C463.734 435.782 463.086 435.391 462.615 434.812C462.143 434.233 461.876 433.503 461.859 432.743C460.333 358.803 467.836 309.116 484.161 273.501C484.452 272.871 484.927 272.355 485.518 272.027C486.109 271.7 486.785 271.58 487.446 271.683L525.204 277.386C525.894 277.491 526.53 277.831 527.015 278.354C527.5 278.878 527.806 279.554 527.885 280.278L531.215 310.98C531.233 311.146 531.266 311.309 531.314 311.468L567.515 424.94C567.762 425.766 567.69 426.66 567.315 427.431C566.94 428.202 566.291 428.789 565.508 429.066L555.725 432.478C555.005 432.725 554.224 432.694 553.524 432.391C552.824 432.088 552.251 431.532 551.909 430.824L502.941 334.228C502.844 334.025 502.689 333.858 502.497 333.751C502.306 333.643 502.087 333.601 501.871 333.629C501.656 333.657 501.454 333.754 501.293 333.907C501.133 334.06 501.022 334.262 500.975 334.484L478.591 435.38C478.439 436.114 478.052 436.771 477.494 437.243C476.936 437.714 476.24 437.971 475.523 437.972Z" fill="#2F2E41"/>
<path d="M445.682 213.618C445.768 214.013 445.824 214.415 445.85 214.82L475.936 232.977L483.248 228.573L491.044 239.25L478.823 248.363C477.835 249.099 476.646 249.481 475.434 249.45C474.222 249.419 473.052 248.977 472.1 248.192L441.077 222.587C439.677 223.129 438.152 223.213 436.705 222.826C435.259 222.44 433.959 221.602 432.979 220.424C431.999 219.245 431.385 217.783 431.218 216.231C431.052 214.679 431.341 213.11 432.048 211.735C432.754 210.359 433.845 209.24 435.173 208.528C436.502 207.816 438.007 207.545 439.487 207.749C440.967 207.954 442.352 208.625 443.459 209.673C444.566 210.721 445.341 212.097 445.682 213.618V213.618Z" fill="#FFB8B8"/>
<path d="M476.349 231.162C476.439 230.698 476.625 230.26 476.892 229.877C477.159 229.495 477.502 229.177 477.898 228.946L491.704 220.869C493.538 219.388 495.859 218.728 498.158 219.034C500.457 219.34 502.546 220.588 503.967 222.503C505.388 224.418 506.025 226.844 505.738 229.25C505.452 231.656 504.265 233.844 502.438 235.336L491.43 247.294C491.116 247.636 490.735 247.902 490.314 248.076C489.892 248.249 489.44 248.325 488.988 248.299C488.536 248.274 488.094 248.146 487.693 247.925C487.292 247.705 486.942 247.396 486.665 247.021L476.941 233.837C476.664 233.462 476.468 233.029 476.366 232.567C476.264 232.106 476.258 231.626 476.349 231.162Z" fill="#34626C"/>
<path d="M508.5 211.808C518 211.808 525.701 203.751 525.701 193.812C525.701 183.873 518 175.816 508.5 175.816C498.999 175.816 491.298 183.873 491.298 193.812C491.298 203.751 498.999 211.808 508.5 211.808Z" fill="#FFB8B8"/>
<path d="M525.25 281.225C525.079 281.225 524.908 281.21 524.74 281.181L487.513 274.796C487.093 274.724 486.69 274.564 486.331 274.324C485.971 274.085 485.662 273.772 485.421 273.403C485.181 273.035 485.014 272.62 484.931 272.183C484.849 271.745 484.852 271.295 484.94 270.859L486.751 261.926C485.824 260.479 478.275 247.898 487.469 236.081C487.293 231.883 488.69 227.778 491.363 224.641C494.036 221.505 497.773 219.583 501.78 219.286L521.019 217.757C523.493 217.56 525.977 217.989 528.261 219.006C530.545 220.023 532.561 221.599 534.141 223.601C535.722 225.603 536.819 227.974 537.341 230.512C537.863 233.05 537.795 235.683 537.142 238.188L528.322 278.66C528.163 279.388 527.772 280.038 527.214 280.503C526.656 280.969 525.963 281.223 525.25 281.225V281.225Z" fill="#34626C"/>
<path d="M560.013 315.068C560.645 314.126 561.071 313.05 561.262 311.917C561.453 310.784 561.404 309.62 561.119 308.509C560.834 307.398 560.319 306.365 559.612 305.484C558.904 304.604 558.02 303.896 557.022 303.411L535.827 235.236L523.544 241.333L546.735 307.715C546.068 309.522 546.057 311.522 546.705 313.337C547.353 315.152 548.615 316.655 550.252 317.561C551.889 318.468 553.787 318.714 555.586 318.255C557.385 317.795 558.96 316.661 560.013 315.068V315.068Z" fill="#FFB8B8"/>
<path d="M540.515 246.586L524.205 251.741C523.741 251.887 523.252 251.928 522.772 251.859C522.291 251.79 521.831 251.614 521.421 251.342C521.012 251.07 520.664 250.709 520.4 250.284C520.136 249.859 519.962 249.379 519.892 248.877L517.416 231.296C516.711 228.807 516.978 226.128 518.159 223.845C519.34 221.563 521.339 219.864 523.716 219.12C526.093 218.377 528.654 218.65 530.839 219.881C533.024 221.111 534.653 223.197 535.369 225.682L542.591 241.703C542.798 242.162 542.908 242.662 542.913 243.169C542.918 243.676 542.819 244.179 542.622 244.642C542.425 245.106 542.135 245.519 541.771 245.855C541.408 246.19 540.979 246.44 540.515 246.586H540.515Z" fill="#34626C"/>
<path d="M491.779 194.507C495.598 196.03 499.754 196.372 503.754 195.493C507.753 194.615 511.427 192.552 514.338 189.551C512.534 194.538 513.038 215.689 513.038 215.689C513.038 215.689 529.039 207.742 531.21 206.352C544.032 198.143 526.348 162.432 511.637 168.064C509.146 169.018 507.065 170.14 506.057 172.707C503.86 169.873 499.702 169.258 496.504 170.714C493.306 172.17 491.032 175.325 489.809 178.743C488.844 181.501 488.469 184.446 488.71 187.372C488.951 190.299 489.803 193.134 491.205 195.678L491.779 194.507Z" fill="black"/>
<path d="M416.717 152H23.112C16.9842 152.006 11.1091 154.556 6.77601 159.089C2.44296 163.622 0.00601499 169.768 0 176.179V289.014C0.00601499 295.425 2.44296 301.571 6.77601 306.105C11.1091 310.638 16.9842 313.187 23.112 313.193H416.717C422.845 313.187 428.72 310.638 433.053 306.105C437.386 301.571 439.823 295.425 439.829 289.014V176.179C439.823 169.768 437.386 163.622 433.053 159.089C428.72 154.556 422.845 152.006 416.717 152V152ZM438.428 289.014C438.421 295.036 436.131 300.809 432.061 305.067C427.991 309.325 422.473 311.72 416.717 311.728H23.112C17.3561 311.72 11.838 309.325 7.76794 305.067C3.69787 300.809 1.40808 295.036 1.40073 289.014V176.179C1.40808 170.157 3.69787 164.385 7.76794 160.127C11.838 155.869 17.3561 153.473 23.112 153.465H416.717C422.473 153.473 427.991 155.869 432.061 160.127C436.131 164.385 438.421 170.157 438.428 176.179V289.014Z" fill="#3F3D56"/>
<path d="M62.1574 258.607C60.4951 258.607 58.8702 258.092 57.4881 257.126C56.1061 256.159 55.0289 254.786 54.3927 253.18C53.7566 251.573 53.5902 249.805 53.9145 248.1C54.2388 246.394 55.0392 244.828 56.2146 243.598C57.39 242.368 58.8875 241.531 60.5178 241.192C62.148 240.852 63.8379 241.026 65.3736 241.692C66.9093 242.357 68.2219 243.484 69.1454 244.93C70.0688 246.376 70.5617 248.076 70.5617 249.815C70.5592 252.146 69.6729 254.381 68.0973 256.029C66.5218 257.678 64.3856 258.605 62.1574 258.607V258.607ZM62.1574 242.488C60.7722 242.488 59.4181 242.918 58.2664 243.723C57.1146 244.528 56.2169 245.672 55.6869 247.011C55.1568 248.35 55.0181 249.823 55.2883 251.244C55.5585 252.666 56.2256 253.971 57.205 254.996C58.1845 256.021 59.4325 256.719 60.791 257.001C62.1496 257.284 63.5578 257.139 64.8376 256.584C66.1173 256.03 67.2111 255.091 67.9807 253.886C68.7503 252.681 69.161 251.264 69.161 249.815C69.1589 247.872 68.4204 246.01 67.1074 244.636C65.7944 243.263 64.0142 242.49 62.1574 242.488V242.488Z" fill="#3F3D56"/>
<path d="M61.8815 238.825C61.6958 238.825 61.5177 238.747 61.3863 238.61C61.255 238.473 61.1812 238.286 61.1812 238.092V229.666C61.1812 229.472 61.255 229.285 61.3863 229.148C61.5177 229.01 61.6958 228.933 61.8815 228.933C62.0673 228.933 62.2454 229.01 62.3768 229.148C62.5081 229.285 62.5819 229.472 62.5819 229.666V238.092C62.5819 238.286 62.5081 238.473 62.3768 238.61C62.2454 238.747 62.0673 238.825 61.8815 238.825Z" fill="#3F3D56"/>
<path d="M50.9515 250.259H42.8973C42.7116 250.259 42.5334 250.182 42.4021 250.045C42.2707 249.907 42.197 249.721 42.197 249.527C42.197 249.332 42.2707 249.146 42.4021 249.009C42.5334 248.871 42.7116 248.794 42.8973 248.794H50.9515C51.1373 248.794 51.3154 248.871 51.4468 249.009C51.5781 249.146 51.6519 249.332 51.6519 249.527C51.6519 249.721 51.5781 249.907 51.4468 250.045C51.3154 250.182 51.1373 250.259 50.9515 250.259Z" fill="#3F3D56"/>
<path d="M80.3669 250.259H72.3126C72.1269 250.259 71.9488 250.182 71.8174 250.045C71.6861 249.907 71.6123 249.721 71.6123 249.527C71.6123 249.332 71.6861 249.146 71.8174 249.009C71.9488 248.871 72.1269 248.794 72.3126 248.794H80.3669C80.5526 248.794 80.7307 248.871 80.8621 249.009C80.9934 249.146 81.0672 249.332 81.0672 249.527C81.0672 249.721 80.9934 249.907 80.8621 250.045C80.7307 250.182 80.5526 250.259 80.3669 250.259Z" fill="#3F3D56"/>
<path d="M72.0914 242.248C71.952 242.248 71.8157 242.204 71.7001 242.123C71.5844 242.041 71.4947 241.926 71.4423 241.791C71.3899 241.655 71.3773 241.507 71.4061 241.364C71.4348 241.221 71.5037 241.091 71.6037 240.989L74.9766 237.566C75.11 237.431 75.2892 237.356 75.475 237.359C75.6607 237.362 75.8377 237.442 75.967 237.582C76.0964 237.721 76.1674 237.909 76.1646 238.103C76.1618 238.297 76.0853 238.482 75.952 238.618L72.579 242.041C72.4485 242.174 72.2735 242.248 72.0914 242.248V242.248Z" fill="#3F3D56"/>
<path d="M51.523 242.248C51.3408 242.248 51.1658 242.174 51.0353 242.041L47.6624 238.618C47.5964 238.551 47.5436 238.471 47.5071 238.383C47.4707 238.294 47.4512 238.199 47.4498 238.103C47.4484 238.007 47.4651 237.911 47.499 237.822C47.5329 237.732 47.5833 237.651 47.6474 237.582C47.7114 237.513 47.7878 237.457 47.8722 237.419C47.9567 237.381 48.0475 237.361 48.1394 237.359C48.2314 237.358 48.3227 237.375 48.4082 237.411C48.4937 237.446 48.5717 237.499 48.6377 237.566L52.0106 240.989C52.1107 241.091 52.1795 241.221 52.2083 241.364C52.237 241.507 52.2244 241.655 52.172 241.791C52.1197 241.926 52.0299 242.041 51.9143 242.123C51.7986 242.204 51.6624 242.248 51.523 242.248Z" fill="#3F3D56"/>
<path d="M48.8504 262.271C48.7128 262.271 48.5782 262.228 48.4635 262.149C48.3488 262.069 48.2591 261.956 48.2055 261.823C48.1519 261.691 48.1368 261.545 48.1621 261.403C48.1875 261.262 48.2521 261.131 48.3479 261.028L51.7208 257.394C51.8502 257.254 52.0273 257.175 52.2131 257.172C52.3988 257.169 52.578 257.243 52.7113 257.379C52.8446 257.514 52.921 257.699 52.9237 257.894C52.9265 258.088 52.8553 258.275 52.7259 258.415L49.353 262.049C49.2877 262.119 49.2096 262.175 49.1233 262.213C49.0369 262.251 48.9442 262.271 48.8504 262.271V262.271Z" fill="#3F3D56"/>
<path d="M76.1647 263.004C76.0712 263.004 75.9787 262.984 75.8926 262.946C75.8065 262.908 75.7286 262.853 75.6635 262.783L71.5902 258.416C71.526 258.347 71.4754 258.266 71.4412 258.176C71.4071 258.087 71.3901 257.992 71.3912 257.895C71.3924 257.799 71.4116 257.704 71.4478 257.616C71.484 257.527 71.5366 257.447 71.6024 257.38C71.6682 257.313 71.746 257.26 71.8314 257.224C71.9168 257.189 72.008 257.171 72.1 257.172C72.1919 257.173 72.2828 257.193 72.3673 257.231C72.4518 257.269 72.5283 257.324 72.5926 257.393L76.6658 261.759C76.7621 261.862 76.8271 261.993 76.8528 262.135C76.8785 262.276 76.8636 262.423 76.8101 262.556C76.7566 262.688 76.6668 262.802 76.552 262.881C76.4372 262.961 76.3025 263.004 76.1647 263.004Z" fill="#3F3D56"/>
<path d="M61.8815 270.331C61.6958 270.331 61.5177 270.253 61.3863 270.116C61.255 269.979 61.1812 269.792 61.1812 269.598V261.172C61.1812 260.978 61.255 260.791 61.3863 260.654C61.5177 260.516 61.6958 260.439 61.8815 260.439C62.0673 260.439 62.2454 260.516 62.3768 260.654C62.5081 260.791 62.5819 260.978 62.5819 261.172V269.598C62.5819 269.792 62.5081 269.979 62.3768 270.116C62.2454 270.253 62.0673 270.331 61.8815 270.331Z" fill="#3F3D56"/>
<path d="M153.494 263.736H130.115C127.727 263.694 125.45 262.672 123.776 260.89C122.101 259.109 121.163 256.71 121.163 254.211C121.163 251.713 122.101 249.314 123.776 247.532C125.45 245.751 127.727 244.728 130.115 244.686H131.903C132.79 242.721 134.191 241.059 135.943 239.892C137.695 238.725 139.727 238.101 141.805 238.092C144.629 238.119 147.338 239.27 149.38 241.312C151.422 243.353 152.644 246.132 152.798 249.082H153.494C155.332 249.114 157.084 249.9 158.373 251.271C159.661 252.641 160.383 254.487 160.383 256.409C160.383 258.332 159.661 260.177 158.373 261.548C157.084 262.919 155.332 263.705 153.494 263.736V263.736ZM130.115 246.152C128.098 246.194 126.178 247.062 124.766 248.568C123.355 250.075 122.564 252.101 122.564 254.211C122.564 256.321 123.355 258.347 124.766 259.854C126.178 261.361 128.098 262.229 130.115 262.271H153.494C154.96 262.239 156.356 261.608 157.382 260.512C158.408 259.416 158.983 257.943 158.983 256.409C158.983 254.875 158.408 253.403 157.382 252.307C156.356 251.211 154.96 250.579 153.494 250.548H152.119C151.933 250.548 151.755 250.471 151.624 250.333C151.493 250.196 151.419 250.009 151.419 249.815C151.441 247.122 150.441 244.53 148.639 242.607C146.837 240.684 144.379 239.587 141.805 239.557C139.922 239.568 138.084 240.156 136.519 241.25C134.953 242.343 133.729 243.893 132.998 245.708C132.944 245.84 132.854 245.952 132.74 246.031C132.625 246.109 132.491 246.152 132.354 246.152H130.115Z" fill="#3F3D56"/>
<path d="M231.591 249.857L231.045 248.507C232.104 248.039 233.037 247.304 233.761 246.369C234.485 245.434 234.978 244.327 235.196 243.145C235.414 241.963 235.35 240.744 235.01 239.594C234.671 238.444 234.066 237.4 233.249 236.552C232.432 235.705 231.429 235.081 230.327 234.736C229.225 234.391 228.058 234.335 226.931 234.573C225.803 234.812 224.749 235.337 223.862 236.102C222.974 236.868 222.28 237.85 221.842 238.962L220.547 238.403C221.073 237.069 221.906 235.89 222.971 234.971C224.036 234.053 225.301 233.423 226.654 233.137C228.007 232.851 229.406 232.918 230.728 233.332C232.051 233.747 233.255 234.495 234.235 235.512C235.216 236.528 235.941 237.782 236.349 239.161C236.756 240.541 236.833 242.004 236.571 243.422C236.31 244.84 235.719 246.169 234.85 247.291C233.981 248.413 232.862 249.294 231.591 249.857V249.857Z" fill="#3F3D56"/>
<path d="M232.636 263.736H209.256C206.868 263.694 204.592 262.672 202.917 260.89C201.243 259.109 200.304 256.71 200.304 254.211C200.304 251.713 201.243 249.314 202.917 247.532C204.592 245.751 206.868 244.728 209.256 244.686H211.044C211.931 242.721 213.332 241.059 215.084 239.892C216.836 238.725 218.869 238.101 220.946 238.092C223.77 238.119 226.479 239.27 228.521 241.312C230.563 243.353 231.785 246.132 231.94 249.082H232.636C234.473 249.114 236.225 249.9 237.514 251.271C238.802 252.641 239.525 254.487 239.525 256.409C239.525 258.332 238.802 260.177 237.514 261.548C236.225 262.919 234.473 263.705 232.636 263.736V263.736ZM209.256 246.152C207.24 246.194 205.319 247.062 203.908 248.568C202.496 250.075 201.705 252.101 201.705 254.211C201.705 256.321 202.496 258.347 203.908 259.854C205.319 261.361 207.24 262.229 209.256 262.271H232.636C234.102 262.239 235.497 261.608 236.523 260.512C237.549 259.416 238.124 257.943 238.124 256.409C238.124 254.875 237.549 253.403 236.523 252.307C235.497 251.211 234.102 250.579 232.636 250.548H231.26C231.075 250.548 230.896 250.471 230.765 250.333C230.634 250.196 230.56 250.009 230.56 249.815C230.582 247.122 229.582 244.53 227.78 242.607C225.978 240.684 223.52 239.587 220.946 239.557C219.064 239.568 217.225 240.156 215.66 241.25C214.094 242.343 212.87 243.893 212.139 245.708C212.085 245.84 211.995 245.952 211.881 246.031C211.766 246.109 211.632 246.152 211.495 246.152H209.256Z" fill="#3F3D56"/>
<path d="M311.777 260.073H308.966C308.78 260.073 308.602 259.996 308.47 259.858C308.339 259.721 308.265 259.534 308.265 259.34C308.265 259.146 308.339 258.959 308.47 258.822C308.602 258.685 308.78 258.607 308.966 258.607H311.777C313.243 258.576 314.638 257.944 315.664 256.848C316.69 255.753 317.265 254.28 317.265 252.746C317.265 251.212 316.69 249.739 315.664 248.643C314.638 247.547 313.243 246.916 311.777 246.884H310.402C310.216 246.884 310.038 246.807 309.906 246.67C309.775 246.532 309.701 246.346 309.701 246.152C309.723 243.459 308.724 240.866 306.921 238.943C305.119 237.02 302.661 235.924 300.087 235.894C298.205 235.904 296.367 236.493 294.801 237.586C293.236 238.679 292.011 240.23 291.28 242.044C291.226 242.176 291.136 242.288 291.022 242.367C290.908 242.446 290.774 242.488 290.637 242.488H288.397C286.381 242.53 284.461 243.398 283.049 244.905C281.637 246.412 280.846 248.438 280.846 250.548C280.846 252.658 281.637 254.684 283.049 256.191C284.461 257.697 286.381 258.565 288.397 258.607H290.569C290.754 258.607 290.932 258.685 291.064 258.822C291.195 258.959 291.269 259.146 291.269 259.34C291.269 259.534 291.195 259.721 291.064 259.858C290.932 259.996 290.754 260.073 290.569 260.073H288.397C286.009 260.031 283.733 259.008 282.058 257.227C280.384 255.445 279.445 253.046 279.445 250.548C279.445 248.049 280.384 245.65 282.058 243.869C283.733 242.087 286.009 241.065 288.397 241.023H290.185C291.072 239.058 292.473 237.395 294.225 236.228C295.978 235.061 298.01 234.437 300.087 234.428C302.912 234.455 305.62 235.607 307.662 237.648C309.704 239.69 310.927 242.468 311.081 245.419H311.777C313.614 245.451 315.366 246.236 316.655 247.607C317.944 248.978 318.666 250.823 318.666 252.746C318.666 254.668 317.944 256.514 316.655 257.885C315.366 259.255 313.614 260.041 311.777 260.073V260.073Z" fill="#3F3D56"/>
<path d="M299.971 263.236C299.785 263.236 299.607 263.159 299.476 263.021C299.345 262.884 299.271 262.697 299.271 262.503V254.077C299.271 253.883 299.345 253.696 299.476 253.559C299.607 253.422 299.785 253.344 299.971 253.344C300.157 253.344 300.335 253.422 300.466 253.559C300.598 253.696 300.671 253.883 300.671 254.077V262.503C300.671 262.697 300.598 262.884 300.466 263.021C300.335 263.159 300.157 263.236 299.971 263.236V263.236Z" fill="#3F3D56"/>
<path d="M295.069 267.632C294.883 267.632 294.705 267.555 294.573 267.417C294.442 267.28 294.368 267.094 294.368 266.899V258.473C294.368 258.279 294.442 258.093 294.573 257.955C294.705 257.818 294.883 257.741 295.069 257.741C295.254 257.741 295.432 257.818 295.564 257.955C295.695 258.093 295.769 258.279 295.769 258.473V266.899C295.769 267.094 295.695 267.28 295.564 267.417C295.432 267.555 295.254 267.632 295.069 267.632Z" fill="#3F3D56"/>
<path d="M304.874 269.83C304.688 269.83 304.51 269.753 304.378 269.615C304.247 269.478 304.173 269.292 304.173 269.097V260.671C304.173 260.477 304.247 260.291 304.378 260.153C304.51 260.016 304.688 259.939 304.874 259.939C305.059 259.939 305.238 260.016 305.369 260.153C305.5 260.291 305.574 260.477 305.574 260.671V269.097C305.574 269.292 305.5 269.478 305.369 269.615C305.238 269.753 305.059 269.83 304.874 269.83V269.83Z" fill="#3F3D56"/>
<path d="M390.918 260.073H388.107C387.921 260.073 387.743 259.996 387.612 259.858C387.48 259.721 387.406 259.534 387.406 259.34C387.406 259.146 387.48 258.959 387.612 258.822C387.743 258.685 387.921 258.607 388.107 258.607H390.918C392.384 258.576 393.78 257.944 394.806 256.848C395.832 255.753 396.406 254.28 396.406 252.746C396.406 251.212 395.832 249.739 394.806 248.643C393.78 247.547 392.384 246.916 390.918 246.884H389.543C389.357 246.884 389.179 246.807 389.048 246.67C388.916 246.532 388.842 246.346 388.842 246.152C388.865 243.459 387.865 240.866 386.063 238.943C384.26 237.02 381.802 235.924 379.228 235.894C377.346 235.904 375.508 236.493 373.942 237.586C372.377 238.679 371.152 240.23 370.421 242.044C370.367 242.176 370.278 242.288 370.163 242.367C370.049 242.446 369.915 242.488 369.778 242.488H367.539C365.522 242.53 363.602 243.398 362.19 244.905C360.778 246.412 359.987 248.438 359.987 250.548C359.987 252.658 360.778 254.684 362.19 256.191C363.602 257.697 365.522 258.565 367.539 258.607H369.71C369.896 258.607 370.074 258.685 370.205 258.822C370.336 258.959 370.41 259.146 370.41 259.34C370.41 259.534 370.336 259.721 370.205 259.858C370.074 259.996 369.896 260.073 369.71 260.073H367.539C365.151 260.031 362.874 259.008 361.199 257.227C359.525 255.445 358.587 253.046 358.587 250.548C358.587 248.049 359.525 245.65 361.199 243.869C362.874 242.087 365.151 241.065 367.539 241.023H369.327C370.214 239.058 371.614 237.395 373.367 236.228C375.119 235.061 377.151 234.437 379.228 234.428C382.053 234.455 384.761 235.607 386.804 237.648C388.846 239.69 390.068 242.468 390.222 245.419H390.918C392.756 245.451 394.508 246.236 395.796 247.607C397.085 248.978 397.807 250.823 397.807 252.746C397.807 254.668 397.085 256.514 395.796 257.885C394.508 259.255 392.756 260.041 390.918 260.073V260.073Z" fill="#3F3D56"/>
<path d="M378.022 258.241C378.892 258.241 379.598 257.503 379.598 256.592C379.598 255.682 378.892 254.944 378.022 254.944C377.152 254.944 376.446 255.682 376.446 256.592C376.446 257.503 377.152 258.241 378.022 258.241Z" fill="#3F3D56"/>
<path d="M383.275 260.439C384.145 260.439 384.85 259.701 384.85 258.791C384.85 257.88 384.145 257.142 383.275 257.142C382.404 257.142 381.699 257.88 381.699 258.791C381.699 259.701 382.404 260.439 383.275 260.439Z" fill="#3F3D56"/>
<path d="M374.52 263.004C375.39 263.004 376.096 262.266 376.096 261.355C376.096 260.445 375.39 259.706 374.52 259.706C373.65 259.706 372.944 260.445 372.944 261.355C372.944 262.266 373.65 263.004 374.52 263.004Z" fill="#3F3D56"/>
<path d="M380.123 266.667C380.993 266.667 381.699 265.929 381.699 265.019C381.699 264.108 380.993 263.37 380.123 263.37C379.253 263.37 378.547 264.108 378.547 265.019C378.547 265.929 379.253 266.667 380.123 266.667Z" fill="#3F3D56"/>
<path d="M81.9427 204.388H41.3215C39.8355 204.388 38.4104 203.77 37.3596 202.671C36.3089 201.572 35.7186 200.081 35.7186 198.526C35.7186 196.972 36.3089 195.481 37.3596 194.381C38.4104 193.282 39.8355 192.665 41.3215 192.665H81.9427C83.4286 192.665 84.8537 193.282 85.9045 194.381C86.9552 195.481 87.5456 196.972 87.5456 198.526C87.5456 200.081 86.9552 201.572 85.9045 202.671C84.8537 203.77 83.4286 204.388 81.9427 204.388Z" fill="#34626C"/>
<path d="M161.084 204.388H120.463C118.977 204.388 117.552 203.77 116.501 202.671C115.45 201.572 114.86 200.081 114.86 198.526C114.86 196.972 115.45 195.481 116.501 194.381C117.552 193.282 118.977 192.665 120.463 192.665H161.084C162.57 192.665 163.995 193.282 165.046 194.381C166.096 195.481 166.687 196.972 166.687 198.526C166.687 200.081 166.096 201.572 165.046 202.671C163.995 203.77 162.57 204.388 161.084 204.388Z" fill="#34626C"/>
<path d="M240.225 204.388H199.604C198.118 204.388 196.693 203.77 195.642 202.671C194.591 201.572 194.001 200.081 194.001 198.526C194.001 196.972 194.591 195.481 195.642 194.381C196.693 193.282 198.118 192.665 199.604 192.665H240.225C241.711 192.665 243.136 193.282 244.187 194.381C245.238 195.481 245.828 196.972 245.828 198.526C245.828 200.081 245.238 201.572 244.187 202.671C243.136 203.77 241.711 204.388 240.225 204.388Z" fill="#34626C"/>
<path d="M319.366 204.388H278.745C277.259 204.388 275.834 203.77 274.783 202.671C273.732 201.572 273.142 200.081 273.142 198.526C273.142 196.972 273.732 195.481 274.783 194.381C275.834 193.282 277.259 192.665 278.745 192.665H319.366C320.852 192.665 322.277 193.282 323.328 194.381C324.379 195.481 324.969 196.972 324.969 198.526C324.969 200.081 324.379 201.572 323.328 202.671C322.277 203.77 320.852 204.388 319.366 204.388Z" fill="#34626C"/>
<path d="M398.507 204.388H357.886C356.4 204.388 354.975 203.77 353.924 202.671C352.874 201.572 352.283 200.081 352.283 198.526C352.283 196.972 352.874 195.481 353.924 194.381C354.975 193.282 356.4 192.665 357.886 192.665H398.507C399.993 192.665 401.419 193.282 402.469 194.381C403.52 195.481 404.11 196.972 404.11 198.526C404.11 200.081 403.52 201.572 402.469 202.671C401.419 203.77 399.993 204.388 398.507 204.388Z" fill="#34626C"/>
<path d="M99.4518 273.261C99.266 273.261 99.0879 273.184 98.9566 273.047C98.8252 272.909 98.7514 272.723 98.7514 272.529V216.844C98.7514 216.649 98.8252 216.463 98.9566 216.326C99.0879 216.188 99.266 216.111 99.4518 216.111C99.6375 216.111 99.8157 216.188 99.947 216.326C100.078 216.463 100.152 216.649 100.152 216.844V272.529C100.152 272.723 100.078 272.909 99.947 273.047C99.8157 273.184 99.6375 273.261 99.4518 273.261Z" fill="#E6E6E6"/>
<path d="M178.593 272.529C178.407 272.529 178.229 272.451 178.098 272.314C177.966 272.177 177.893 271.99 177.893 271.796V216.111C177.893 215.917 177.966 215.73 178.098 215.593C178.229 215.456 178.407 215.378 178.593 215.378C178.779 215.378 178.957 215.456 179.088 215.593C179.22 215.73 179.293 215.917 179.293 216.111V271.796C179.293 271.99 179.22 272.177 179.088 272.314C178.957 272.451 178.779 272.529 178.593 272.529Z" fill="#E6E6E6"/>
<path d="M261.936 272.529C261.751 272.529 261.572 272.451 261.441 272.314C261.31 272.177 261.236 271.99 261.236 271.796V216.111C261.236 215.917 261.31 215.73 261.441 215.593C261.572 215.456 261.751 215.378 261.936 215.378C262.122 215.378 262.3 215.456 262.432 215.593C262.563 215.73 262.637 215.917 262.637 216.111V271.796C262.637 271.99 262.563 272.177 262.432 272.314C262.3 272.451 262.122 272.529 261.936 272.529Z" fill="#E6E6E6"/>
<path d="M341.078 272.529C340.892 272.529 340.714 272.451 340.582 272.314C340.451 272.177 340.377 271.99 340.377 271.796V216.111C340.377 215.917 340.451 215.73 340.582 215.593C340.714 215.456 340.892 215.378 341.078 215.378C341.263 215.378 341.441 215.456 341.573 215.593C341.704 215.73 341.778 215.917 341.778 216.111V271.796C341.778 271.99 341.704 272.177 341.573 272.314C341.441 272.451 341.263 272.529 341.078 272.529Z" fill="#E6E6E6"/>
<path d="M632.3 459H365.461C365.275 459 365.097 458.923 364.966 458.785C364.834 458.648 364.76 458.462 364.76 458.267C364.76 458.073 364.834 457.887 364.966 457.749C365.097 457.612 365.275 457.535 365.461 457.535H632.3C632.485 457.535 632.664 457.612 632.795 457.749C632.926 457.887 633 458.073 633 458.267C633 458.462 632.926 458.648 632.795 458.785C632.664 458.923 632.485 459 632.3 459Z" fill="#3F3D56"/>
</g>
<defs>
<clipPath id="clip0">
<rect width="633" height="307" fill="white" transform="translate(0 152)"/>
</clipPath>
</defs>
</svg>
